%TF.GenerationSoftware,KiCad,Pcbnew,10.0.6*%
%TF.CreationDate,2026-09-04T23:47:32+09:00*%
%TF.ProjectId,AMS1117_Regulator,414d5331-3131-4375-9f52-6567756c6174,rev?*%
%TF.SameCoordinates,Original*%
%TF.FileFunction,Legend,Top*%
%TF.FilePolarity,Positive*%
%FSLAX46Y46*%
G04 Gerber Fmt 4.6, Leading zero omitted, Abs format (unit mm)*
G04 Created by KiCad (PCBNEW 10.0.6) date 2026-09-04 23:47:32*
%MOMM*%
%LPD*%
G01*
G04 APERTURE LIST*
%ADD10C,0.150000*%
%ADD11C,0.120000*%
G04 APERTURE END LIST*
D10*
X122083333Y-83454819D02*
X121750000Y-82978628D01*
X121511905Y-83454819D02*
X121511905Y-82454819D01*
X121511905Y-82454819D02*
X121892857Y-82454819D01*
X121892857Y-82454819D02*
X121988095Y-82502438D01*
X121988095Y-82502438D02*
X122035714Y-82550057D01*
X122035714Y-82550057D02*
X122083333Y-82645295D01*
X122083333Y-82645295D02*
X122083333Y-82788152D01*
X122083333Y-82788152D02*
X122035714Y-82883390D01*
X122035714Y-82883390D02*
X121988095Y-82931009D01*
X121988095Y-82931009D02*
X121892857Y-82978628D01*
X121892857Y-82978628D02*
X121511905Y-82978628D01*
X123035714Y-83454819D02*
X122464286Y-83454819D01*
X122750000Y-83454819D02*
X122750000Y-82454819D01*
X122750000Y-82454819D02*
X122654762Y-82597676D01*
X122654762Y-82597676D02*
X122559524Y-82692914D01*
X122559524Y-82692914D02*
X122464286Y-82740533D01*
X131833333Y-93359580D02*
X131785714Y-93407200D01*
X131785714Y-93407200D02*
X131642857Y-93454819D01*
X131642857Y-93454819D02*
X131547619Y-93454819D01*
X131547619Y-93454819D02*
X131404762Y-93407200D01*
X131404762Y-93407200D02*
X131309524Y-93311961D01*
X131309524Y-93311961D02*
X131261905Y-93216723D01*
X131261905Y-93216723D02*
X131214286Y-93026247D01*
X131214286Y-93026247D02*
X131214286Y-92883390D01*
X131214286Y-92883390D02*
X131261905Y-92692914D01*
X131261905Y-92692914D02*
X131309524Y-92597676D01*
X131309524Y-92597676D02*
X131404762Y-92502438D01*
X131404762Y-92502438D02*
X131547619Y-92454819D01*
X131547619Y-92454819D02*
X131642857Y-92454819D01*
X131642857Y-92454819D02*
X131785714Y-92502438D01*
X131785714Y-92502438D02*
X131833333Y-92550057D01*
X132785714Y-93454819D02*
X132214286Y-93454819D01*
X132500000Y-93454819D02*
X132500000Y-92454819D01*
X132500000Y-92454819D02*
X132404762Y-92597676D01*
X132404762Y-92597676D02*
X132309524Y-92692914D01*
X132309524Y-92692914D02*
X132214286Y-92740533D01*
X134666666Y-86324819D02*
X134666666Y-87039104D01*
X134666666Y-87039104D02*
X134619047Y-87181961D01*
X134619047Y-87181961D02*
X134523809Y-87277200D01*
X134523809Y-87277200D02*
X134380952Y-87324819D01*
X134380952Y-87324819D02*
X134285714Y-87324819D01*
X135095238Y-86420057D02*
X135142857Y-86372438D01*
X135142857Y-86372438D02*
X135238095Y-86324819D01*
X135238095Y-86324819D02*
X135476190Y-86324819D01*
X135476190Y-86324819D02*
X135571428Y-86372438D01*
X135571428Y-86372438D02*
X135619047Y-86420057D01*
X135619047Y-86420057D02*
X135666666Y-86515295D01*
X135666666Y-86515295D02*
X135666666Y-86610533D01*
X135666666Y-86610533D02*
X135619047Y-86753390D01*
X135619047Y-86753390D02*
X135047619Y-87324819D01*
X135047619Y-87324819D02*
X135666666Y-87324819D01*
X111916666Y-92204819D02*
X111916666Y-92919104D01*
X111916666Y-92919104D02*
X111869047Y-93061961D01*
X111869047Y-93061961D02*
X111773809Y-93157200D01*
X111773809Y-93157200D02*
X111630952Y-93204819D01*
X111630952Y-93204819D02*
X111535714Y-93204819D01*
X112916666Y-93204819D02*
X112345238Y-93204819D01*
X112630952Y-93204819D02*
X112630952Y-92204819D01*
X112630952Y-92204819D02*
X112535714Y-92347676D01*
X112535714Y-92347676D02*
X112440476Y-92442914D01*
X112440476Y-92442914D02*
X112345238Y-92490533D01*
X129261905Y-83454819D02*
X129261905Y-82454819D01*
X129261905Y-82454819D02*
X129500000Y-82454819D01*
X129500000Y-82454819D02*
X129642857Y-82502438D01*
X129642857Y-82502438D02*
X129738095Y-82597676D01*
X129738095Y-82597676D02*
X129785714Y-82692914D01*
X129785714Y-82692914D02*
X129833333Y-82883390D01*
X129833333Y-82883390D02*
X129833333Y-83026247D01*
X129833333Y-83026247D02*
X129785714Y-83216723D01*
X129785714Y-83216723D02*
X129738095Y-83311961D01*
X129738095Y-83311961D02*
X129642857Y-83407200D01*
X129642857Y-83407200D02*
X129500000Y-83454819D01*
X129500000Y-83454819D02*
X129261905Y-83454819D01*
X130785714Y-83454819D02*
X130214286Y-83454819D01*
X130500000Y-83454819D02*
X130500000Y-82454819D01*
X130500000Y-82454819D02*
X130404762Y-82597676D01*
X130404762Y-82597676D02*
X130309524Y-82692914D01*
X130309524Y-82692914D02*
X130214286Y-82740533D01*
X120083333Y-88359580D02*
X120035714Y-88407200D01*
X120035714Y-88407200D02*
X119892857Y-88454819D01*
X119892857Y-88454819D02*
X119797619Y-88454819D01*
X119797619Y-88454819D02*
X119654762Y-88407200D01*
X119654762Y-88407200D02*
X119559524Y-88311961D01*
X119559524Y-88311961D02*
X119511905Y-88216723D01*
X119511905Y-88216723D02*
X119464286Y-88026247D01*
X119464286Y-88026247D02*
X119464286Y-87883390D01*
X119464286Y-87883390D02*
X119511905Y-87692914D01*
X119511905Y-87692914D02*
X119559524Y-87597676D01*
X119559524Y-87597676D02*
X119654762Y-87502438D01*
X119654762Y-87502438D02*
X119797619Y-87454819D01*
X119797619Y-87454819D02*
X119892857Y-87454819D01*
X119892857Y-87454819D02*
X120035714Y-87502438D01*
X120035714Y-87502438D02*
X120083333Y-87550057D01*
X120464286Y-87550057D02*
X120511905Y-87502438D01*
X120511905Y-87502438D02*
X120607143Y-87454819D01*
X120607143Y-87454819D02*
X120845238Y-87454819D01*
X120845238Y-87454819D02*
X120940476Y-87502438D01*
X120940476Y-87502438D02*
X120988095Y-87550057D01*
X120988095Y-87550057D02*
X121035714Y-87645295D01*
X121035714Y-87645295D02*
X121035714Y-87740533D01*
X121035714Y-87740533D02*
X120988095Y-87883390D01*
X120988095Y-87883390D02*
X120416667Y-88454819D01*
X120416667Y-88454819D02*
X121035714Y-88454819D01*
X125238095Y-87704819D02*
X125238095Y-88514342D01*
X125238095Y-88514342D02*
X125285714Y-88609580D01*
X125285714Y-88609580D02*
X125333333Y-88657200D01*
X125333333Y-88657200D02*
X125428571Y-88704819D01*
X125428571Y-88704819D02*
X125619047Y-88704819D01*
X125619047Y-88704819D02*
X125714285Y-88657200D01*
X125714285Y-88657200D02*
X125761904Y-88609580D01*
X125761904Y-88609580D02*
X125809523Y-88514342D01*
X125809523Y-88514342D02*
X125809523Y-87704819D01*
X126809523Y-88704819D02*
X126238095Y-88704819D01*
X126523809Y-88704819D02*
X126523809Y-87704819D01*
X126523809Y-87704819D02*
X126428571Y-87847676D01*
X126428571Y-87847676D02*
X126333333Y-87942914D01*
X126333333Y-87942914D02*
X126238095Y-87990533D01*
%TO.C,R1*%
D11*
X123772936Y-86235000D02*
X124227064Y-86235000D01*
X123772936Y-84765000D02*
X124227064Y-84765000D01*
%TO.C,C1*%
X132485000Y-90238748D02*
X132485000Y-90761252D01*
X131015000Y-90238748D02*
X131015000Y-90761252D01*
%TO.C,J2*%
X133620000Y-87870000D02*
X135000000Y-87870000D01*
X133620000Y-89250000D02*
X133620000Y-87870000D01*
X133620000Y-90520000D02*
X133620000Y-93170000D01*
X133620000Y-90520000D02*
X136380000Y-90520000D01*
X133620000Y-93170000D02*
X136380000Y-93170000D01*
X136380000Y-90520000D02*
X136380000Y-93170000D01*
%TO.C,J1*%
X115120000Y-90505000D02*
X115120000Y-87855000D01*
X117880000Y-87855000D02*
X115120000Y-87855000D01*
X117880000Y-90505000D02*
X115120000Y-90505000D01*
X117880000Y-90505000D02*
X117880000Y-87855000D01*
X117880000Y-91775000D02*
X117880000Y-93155000D01*
X117880000Y-93155000D02*
X116500000Y-93155000D01*
%TO.C,D1*%
X129435000Y-86460000D02*
X129435000Y-84540000D01*
X129435000Y-84540000D02*
X126750000Y-84540000D01*
X126750000Y-86460000D02*
X129435000Y-86460000D01*
%TO.C,C2*%
X119515000Y-90761252D02*
X119515000Y-90238748D01*
X120985000Y-90761252D02*
X120985000Y-90238748D01*
%TO.C,U1*%
X124150000Y-87090000D02*
X127910000Y-87090000D01*
X124150000Y-93910000D02*
X127910000Y-93910000D01*
X127910000Y-87090000D02*
X127910000Y-88350000D01*
X127910000Y-93910000D02*
X127910000Y-92650000D01*
X122870000Y-87190000D02*
X122630000Y-86860000D01*
X123110000Y-86860000D01*
X122870000Y-87190000D01*
G36*
X122870000Y-87190000D02*
G01*
X122630000Y-86860000D01*
X123110000Y-86860000D01*
X122870000Y-87190000D01*
G37*
%TD*%
M02*
